# File created by Blade
# Date/Time:  Mon Nov 18 18:33:23 2013
# Frame Rate: 100.000 fps
#------------------------------------------------------
:FULLY-SPECIFIED
:DEGREES
29
root 51.383310 0.275713 52.811938 -5.773794 3.987419 -129.143201
Spine 6.668087 -0.757634 -0.655747
Spine1 2.037972 1.386305 -1.294450
Spine2 0.813832 -2.000498 -1.872207
NeckDummy 0.001397 -0.063383 -0.018560 -0.497346 1.589279 -0.599141
Neck 23.281133 3.684732 29.647776
Head -0.349425 0.379535 0.141779 -33.188716 -4.632314 -0.972450
LeftShoulderDummy -0.060630 -0.063141 -0.002778 -0.463981 1.452282 -0.414633
LeftShoulder 10.915759 -3.994828 18.042713
LeftArm 1.268515 43.806135 14.099373
LeftForeArm 91.947556
LeftForeArmRoll -27.626283
LeftHand -9.152552 3.906399 -3.067092
LeftHandThumb1 15.298051 13.141801
LeftHandIndex1 16.862050 42.082072
LeftHandPinky1 14.553338 46.840958
RightShoulderDummy -0.020827 -0.042252 0.033229 -0.516516 -1.618355 0.686558
RightShoulder 8.133063 3.483016 21.224577
RightArm -50.686901 50.885492 -2.395894
RightForeArm 115.466305
RightForeArmRoll 7.175770
RightHand -17.248570 -15.797991 12.565251
RightHandThumb1 -1.431027 14.285856
RightHandIndex1 14.581812 60.712187
RightHandPinky1 19.437712 68.835771
LeftUpLeg 16.816459 9.828040 -6.903121
LeftLeg 29.464667
LeftFoot 0.326614 -0.443886 -0.339282 -10.177860 11.463203 -10.537464
LeftToeBase -1.589164
RightUpLeg 12.332689 14.851256 -6.401597
RightLeg 33.966223
RightFoot -0.429411 0.281950 0.097600 -4.012522 2.946799 -20.571308
RightToeBase -0.913821
30
root 51.349193 0.274957 52.830479 -5.759917 3.958855 -129.217626
Spine 6.666213 -0.767769 -0.636984
Spine1 2.048759 1.399163 -1.256688
Spine2 0.777868 -1.841947 -2.008547
NeckDummy 0.002025 -0.064079 -0.017586 -0.480074 1.673217 -0.576696
Neck 23.237221 3.500863 29.580694
Head -0.353208 0.379726 0.141154 -33.181445 -4.644539 -1.036303
LeftShoulderDummy -0.058797 -0.063373 -0.004010 -0.446343 1.536023 -0.393351
LeftShoulder 10.960610 -4.125837 18.000202
LeftArm 1.417340 43.890422 14.074222
LeftForeArm 91.933457
LeftForeArmRoll -27.682357
LeftHand -9.129100 4.269418 -3.005292
LeftHandThumb1 15.296189 12.798916
LeftHandIndex1 16.626796 41.677137
LeftHandPinky1 14.315580 46.418884
RightShoulderDummy -0.019560 -0.043413 0.035074 -0.499556 -1.701587 0.662666
RightShoulder 8.095943 3.525133 21.252104
RightArm -50.528369 51.146127 -2.428664
RightForeArm 115.402330
RightForeArmRoll 7.005523
RightHand -17.242706 -15.904203 12.647901
RightHandThumb1 -1.410980 14.400434
RightHandIndex1 14.541413 61.023824
RightHandPinky1 19.390872 69.124627
LeftUpLeg 16.925496 9.830834 -6.756995
LeftLeg 29.300818
LeftFoot 0.315290 -0.431761 -0.338169 -10.347850 11.431643 -10.533827
LeftToeBase -1.597924
RightUpLeg 12.404310 14.928552 -6.474307
RightLeg 34.069276
RightFoot -0.440580 0.289514 0.105019 -4.197257 2.784424 -20.551008
RightToeBase -0.868982
31
root 51.318781 0.273871 52.847430 -5.753491 3.926619 -129.263582
Spine 6.678033 -0.717771 -0.676293
Spine1 2.041920 1.424162 -1.332234
Spine2 0.790049 -1.864630 -1.875524
NeckDummy 0.001359 -0.066180 -0.017853 -0.496502 1.578329 -0.572644
Neck 23.072203 3.439683 29.488218
Head -0.353727 0.381564 0.140302 -33.151464 -4.674793 -0.985794
LeftShoulderDummy -0.060548 -0.065988 -0.002402 -0.464169 1.441598 -0.385435
LeftShoulder 10.735508 -4.061539 18.012470
LeftArm 1.298699 44.110241 13.923330
LeftForeArm 91.852907
LeftForeArmRoll -27.806354
LeftHand -9.202013 4.216689 -2.954976
LeftHandThumb1 15.272903 12.885520
LeftHandIndex1 16.702553 41.747226
LeftHandPinky1 14.312449 46.693018
RightShoulderDummy -0.020459 -0.045734 0.033476 -0.516206 -1.605951 0.657749
RightShoulder 8.173410 3.419312 21.261390
RightArm -50.249666 51.383794 -2.399468
RightForeArm 115.379872
RightForeArmRoll 6.786069
RightHand -17.228489 -15.874462 12.647338
RightHandThumb1 -1.309759 14.359208
RightHandIndex1 14.601125 61.236074
RightHandPinky1 19.240747 69.414280
LeftUpLeg 17.133538 9.861656 -6.643449
LeftLeg 29.162343
LeftFoot 0.314360 -0.423221 -0.346973 -10.443126 11.274709 -10.526580
LeftToeBase -1.531689
RightUpLeg 12.496588 14.997631 -6.519738
RightLeg 34.142669
RightFoot -0.434073 0.290107 0.107454 -4.171157 2.630974 -20.491771
RightToeBase -0.940844
32
root 51.289383 0.270887 52.863789 -5.735264 3.905165 -129.261072
Spine 6.688036 -0.703637 -0.688746
Spine1 2.043786 1.447998 -1.365254
Spine2 0.755436 -1.785863 -1.936701
NeckDummy 0.001586 -0.067938 -0.016875 -0.488950 1.614952 -0.558253
Neck 22.986963 3.303781 29.452587
Head -0.349473 0.380978 0.138716 -33.128361 -4.640118 -0.969368
LeftShoulderDummy -0.059743 -0.067374 -0.002192 -0.455973 1.477495 -0.370398
LeftShoulder 10.827593 -4.098152 17.994945
LeftArm 1.591157 44.252980 14.036064
LeftForeArm 91.802241
LeftForeArmRoll -27.939652
LeftHand -9.198681 4.424593 -2.917119
LeftHandThumb1 15.298515 12.920124
LeftHandIndex1 16.569698 41.820254
LeftHandPinky1 14.311970 46.579632
RightShoulderDummy -0.020141 -0.047788 0.034847 -0.508631 -1.641681 0.640812
RightShoulder 8.157573 3.435862 21.305972
RightArm -50.163084 51.705679 -2.532751
RightForeArm 115.336428
RightForeArmRoll 6.655283
RightHand -17.266973 -15.871780 12.569685
RightHandThumb1 -1.377422 14.506945
RightHandIndex1 14.739486 61.524660
RightHandPinky1 19.599119 69.660480
LeftUpLeg 17.182865 9.853830 -6.568626
LeftLeg 29.064312
LeftFoot 0.311770 -0.418082 -0.351266 -10.542871 11.165236 -10.501573
LeftToeBase -1.638164
RightUpLeg 12.629027 15.083616 -6.572101
RightLeg 34.217548
RightFoot -0.435798 0.296532 0.117410 -4.186410 2.468702 -20.519221
RightToeBase -0.938484
